#Comment line ignore any data following # character 
#Hierarchical Translation and Rotation (.htr) file 
[Header]	
#Header keywords are followed by a single value 
FileType HTR		#Single word string
DataType HTRS		#Translation followed by rotation and scale data
FileVersion 1		#integer
NumSegments 64		#integer
NumFrames 3		#integer
DataFrameRate 30		#integer, data frame rate in this file
EulerRotationOrder ZYX
CalibrationUnits mm
RotationUnits Degrees
GlobalAxisofGravity Y
BoneLengthAxis Y
ScaleFactor 1.00
[SegmentNames&Hierarchy]
#CHILD	PARENT
Pinger_Root GLOBAL
Pelvis Pinger_Root
L_Hip Pelvis
R_Hip Pelvis
Rear_Leg01 Pelvis
Spine1 Pelvis
L_Leg01 L_Hip
L_Leg02 L_Leg01
L_Leg03 L_Leg02
L_Foot L_Leg03
L_Toe1_01 L_Foot
L_Toe2_01 L_Foot
L_Toe3_01 L_Foot
planeAlignerLeft L_Foot
L_Toe1_02 L_Toe1_01
L_Toe1_03 L_Toe1_02
L_Toe2_02 L_Toe2_01
L_Toe2_03 L_Toe2_02
L_Toe3_02 L_Toe3_01
L_Toe3_03 L_Toe3_02
planeLockWeightLeft planeAlignerLeft
R_Leg01 R_Hip
R_Leg02 R_Leg01
R_Leg03 R_Leg02
R_Foot R_Leg03
planeAlignerRight R_Foot
R_Toe1_01 R_Foot
R_Toe2_01 R_Foot
R_Toe3_01 R_Foot
planeLockWeightRight planeAlignerRight
R_Toe1_02 R_Toe1_01
R_Toe1_03 R_Toe1_02
R_Toe2_02 R_Toe2_01
R_Toe2_03 R_Toe2_02
R_Toe3_02 R_Toe3_01
R_Toe3_03 R_Toe3_02
Rear_Leg02 Rear_Leg01
Rear_Leg03 Rear_Leg02
Rear_Leg04 Rear_Leg03
Rear_Foot Rear_Leg04
planeAlignerCenter Rear_Foot
Rear_Toe1_01 Rear_Foot
Rear_Toe2_01 Rear_Foot
Rear_Toe3_01 Rear_Foot
planeLockWeightCenter planeAlignerCenter
Rear_Toe1_02 Rear_Toe1_01
Rear_Toe1_03 Rear_Toe1_02
Rear_Toe2_02 Rear_Toe2_01
Rear_Toe2_03 Rear_Toe2_02
Rear_Toe3_02 Rear_Toe3_01
Rear_Toe3_03 Rear_Toe3_02
Back_Bone Spine1
Head Spine1
Motor_Bone Back_Bone
Ping_Mechanism Back_Bone
BN_LookIK Head
bottomMouth Head
L_Mouth01 Head
L_mouthFront Head
mouthGun Head
R_Mouth01 Head
R_mouthFront Head
TopMouth Head
weapon_bone Head
[BasePosition]
#SegmentName Tx, Ty, Tz, Rx, Ry, Rz, BoneLength
Pinger_Root 0.000000 0.000000 0.000000 -90.000000 0.000000 0.000000 10.000000 
Pelvis 0.000000 0.000000 0.000000 0.000000 0.000000 0.000000 10.000000 
L_Hip 0.000000 0.000000 0.000000 0.000000 0.000000 0.000000 10.000000 
R_Hip 0.000000 0.000000 0.000000 0.000000 0.000000 0.000000 10.000000 
Rear_Leg01 0.000000 0.000000 0.000000 0.000000 0.000000 0.000000 10.000000 
Spine1 0.000000 0.000000 0.000000 0.000000 0.000000 0.000000 10.000000 
L_Leg01 0.000000 0.000000 0.000000 0.000000 0.000000 0.000000 10.000000 
L_Leg02 0.000000 0.000000 0.000000 0.000000 0.000000 0.000000 10.000000 
L_Leg03 0.000000 0.000000 0.000000 0.000000 0.000000 0.000000 10.000000 
L_Foot 0.000000 0.000000 0.000000 0.000000 0.000000 0.000000 10.000000 
L_Toe1_01 0.000000 0.000000 0.000000 0.000000 0.000000 0.000000 10.000000 
L_Toe2_01 0.000000 0.000000 0.000000 0.000000 0.000000 0.000000 10.000000 
L_Toe3_01 0.000000 0.000000 0.000000 0.000000 0.000000 0.000000 10.000000 
planeAlignerLeft 0.000000 0.000000 0.000000 0.000000 0.000000 0.000000 10.000000 
L_Toe1_02 0.000000 0.000000 0.000000 0.000000 0.000000 0.000000 10.000000 
L_Toe1_03 0.000000 0.000000 0.000000 0.000000 0.000000 0.000000 10.000000 
L_Toe2_02 0.000000 0.000000 0.000000 0.000000 0.000000 0.000000 10.000000 
L_Toe2_03 0.000000 0.000000 0.000000 0.000000 0.000000 0.000000 10.000000 
L_Toe3_02 0.000000 0.000000 0.000000 0.000000 0.000000 0.000000 10.000000 
L_Toe3_03 0.000000 0.000000 0.000000 0.000000 0.000000 0.000000 10.000000 
planeLockWeightLeft 0.000000 0.000000 0.000000 0.000000 0.000000 0.000000 10.000000 
R_Leg01 0.000000 0.000000 0.000000 0.000000 0.000000 0.000000 10.000000 
R_Leg02 0.000000 0.000000 0.000000 0.000000 0.000000 0.000000 10.000000 
R_Leg03 0.000000 0.000000 0.000000 0.000000 0.000000 0.000000 10.000000 
R_Foot 0.000000 0.000000 0.000000 0.000000 0.000000 0.000000 10.000000 
planeAlignerRight 0.000000 0.000000 0.000000 0.000000 0.000000 0.000000 10.000000 
R_Toe1_01 0.000000 0.000000 0.000000 0.000000 0.000000 0.000000 10.000000 
R_Toe2_01 0.000000 0.000000 0.000000 0.000000 0.000000 0.000000 10.000000 
R_Toe3_01 0.000000 0.000000 0.000000 0.000000 0.000000 0.000000 10.000000 
planeLockWeightRight 0.000000 0.000000 0.000000 0.000000 0.000000 0.000000 10.000000 
R_Toe1_02 0.000000 0.000000 0.000000 0.000000 0.000000 0.000000 10.000000 
R_Toe1_03 0.000000 0.000000 0.000000 0.000000 0.000000 0.000000 10.000000 
R_Toe2_02 0.000000 0.000000 0.000000 0.000000 0.000000 0.000000 10.000000 
R_Toe2_03 0.000000 0.000000 0.000000 0.000000 0.000000 0.000000 10.000000 
R_Toe3_02 0.000000 0.000000 0.000000 0.000000 0.000000 0.000000 10.000000 
R_Toe3_03 0.000000 0.000000 0.000000 0.000000 0.000000 0.000000 10.000000 
Rear_Leg02 0.000000 0.000000 0.000000 0.000000 0.000000 0.000000 10.000000 
Rear_Leg03 0.000000 0.000000 0.000000 0.000000 0.000000 0.000000 10.000000 
Rear_Leg04 0.000000 0.000000 0.000000 0.000000 0.000000 0.000000 10.000000 
Rear_Foot 0.000000 0.000000 0.000000 0.000000 0.000000 0.000000 10.000000 
planeAlignerCenter 0.000000 0.000000 0.000000 0.000000 0.000000 0.000000 10.000000 
Rear_Toe1_01 0.000000 0.000000 0.000000 0.000000 0.000000 0.000000 10.000000 
Rear_Toe2_01 0.000000 0.000000 0.000000 0.000000 0.000000 0.000000 10.000000 
Rear_Toe3_01 0.000000 0.000000 0.000000 0.000000 0.000000 0.000000 10.000000 
planeLockWeightCenter 0.000000 0.000000 0.000000 0.000000 0.000000 0.000000 10.000000 
Rear_Toe1_02 0.000000 0.000000 0.000000 0.000000 0.000000 0.000000 10.000000 
Rear_Toe1_03 0.000000 0.000000 0.000000 0.000000 0.000000 0.000000 10.000000 
Rear_Toe2_02 0.000000 0.000000 0.000000 0.000000 0.000000 0.000000 10.000000 
Rear_Toe2_03 0.000000 0.000000 0.000000 0.000000 0.000000 0.000000 10.000000 
Rear_Toe3_02 0.000000 0.000000 0.000000 0.000000 0.000000 0.000000 10.000000 
Rear_Toe3_03 0.000000 0.000000 0.000000 0.000000 0.000000 0.000000 10.000000 
Back_Bone 0.000000 0.000000 0.000000 0.000000 0.000000 0.000000 10.000000 
Head 0.000000 0.000000 0.000000 0.000000 0.000000 0.000000 10.000000 
Motor_Bone 0.000000 0.000000 0.000000 0.000000 0.000000 0.000000 10.000000 
Ping_Mechanism 0.000000 0.000000 0.000000 0.000000 0.000000 0.000000 10.000000 
BN_LookIK 0.000000 0.000000 0.000000 0.000000 0.000000 0.000000 10.000000 
bottomMouth 0.000000 0.000000 0.000000 0.000000 0.000000 0.000000 10.000000 
L_Mouth01 0.000000 0.000000 0.000000 0.000000 0.000000 0.000000 10.000000 
L_mouthFront 0.000000 0.000000 0.000000 0.000000 0.000000 0.000000 10.000000 
mouthGun 0.000000 0.000000 0.000000 0.000000 0.000000 0.000000 10.000000 
R_Mouth01 0.000000 0.000000 0.000000 0.000000 0.000000 0.000000 10.000000 
R_mouthFront 0.000000 0.000000 0.000000 0.000000 0.000000 0.000000 10.000000 
TopMouth 0.000000 0.000000 0.000000 0.000000 0.000000 0.000000 10.000000 
weapon_bone 0.000000 0.000000 0.000000 0.000000 0.000000 0.000000 10.000000 
#Beginning of Data. Separated by tabs
#Fr	Tx	Ty	Tz	Rx	Ry	Rz	SF
[Pinger_Root]
78 0.000000 0.000000 0.000000 -0.000075 -0.000000 -0.000020 0.000000
79 0.000000 0.000000 0.000000 -0.000075 -0.000000 -0.000020 0.000000
80 0.000000 0.000000 0.000000 -0.000075 -0.000000 -0.000020 0.000000
[Pelvis]
78 277.012238 1641.020020 4953.002441 31.692350 -85.020706 -23.528238 5225.123535
79 281.829529 1676.553833 4941.046875 30.034914 -85.135178 -21.908611 5225.342285
80 286.646820 1712.087280 4929.090820 28.319677 -85.188873 -20.237371 5225.834473
[L_Hip]
78 5.766392 125.831482 872.656799 -178.253342 -81.787735 87.381340 881.701050
79 5.766392 125.831482 872.656799 -178.253296 -81.787666 87.381203 881.701050
80 5.766392 125.831482 872.656799 -178.253311 -81.787758 87.381340 881.701050
[R_Hip]
78 5.765438 125.836372 -872.654907 -1.731464 81.784729 87.373123 881.699829
79 5.765438 125.836372 -872.654907 -1.731252 81.784744 87.373070 881.699829
80 5.765438 125.836372 -872.654907 -1.731015 81.784653 87.372917 881.699829
[Rear_Leg01]
78 -192.298416 -925.602966 -0.001907 154.636658 10.756643 -131.412476 945.367432
79 -192.298416 -925.602966 -0.001907 154.346329 11.044351 -131.843628 945.367432
80 -192.298416 -925.602966 -0.001907 154.053497 11.329899 -132.276703 945.367432
[Spine1]
78 290.604584 5.007505 0.000477 2.505067 -1.926302 21.182369 290.647736
79 290.604584 5.007505 0.000477 2.635432 -2.029238 20.914381 290.647736
80 290.604584 5.007505 0.000477 2.766282 -2.131559 20.646147 290.647736
[L_Leg01]
78 761.932007 -0.002384 -0.069261 128.870438 -24.610907 -108.323112 761.932068
79 761.932007 -0.002384 -0.069261 128.649612 -24.130062 -107.928818 761.932068
80 761.932007 -0.002384 -0.069261 128.433258 -23.647863 -107.538055 761.932068
[L_Leg02]
78 1441.140503 -0.000954 -0.000715 -1.275223 0.550785 -109.972160 1441.140503
79 1441.140503 -0.000954 -0.000715 -1.257453 0.530345 -110.194458 1441.140503
80 1441.140503 -0.000954 -0.000715 -1.239604 0.509975 -110.416748 1441.140503
[L_Leg03]
78 1686.963989 -0.000715 -0.000954 0.043689 -0.010191 98.311241 1686.963989
79 1686.963989 -0.000715 -0.000954 0.041147 -0.009630 99.023170 1686.963989
80 1686.963989 -0.000715 -0.000954 0.038611 -0.009037 99.735321 1686.963989
[L_Foot]
78 3041.570068 -30.715107 11.297464 9.179657 16.260590 80.908836 3041.746094
79 3041.570068 -30.715107 11.297464 9.395276 16.230274 81.188995 3041.746094
80 3041.570068 -30.715107 11.297464 9.610709 16.198954 81.469002 3041.746094
[L_Toe1_01]
78 -188.216690 -224.732346 -21.137953 103.290787 -4.532046 -176.007248 293.899567
79 -188.216690 -224.732346 -21.137953 103.293831 -4.495810 -176.069778 293.899567
80 -188.216690 -224.732346 -21.137953 103.296829 -4.459570 -176.132324 293.899567
[L_Toe2_01]
78 200.746536 -219.926590 148.838394 -86.584366 -21.857552 -53.553059 332.896027
79 200.746536 -219.926590 148.838394 -86.597221 -21.831234 -53.542259 332.896027
80 200.746536 -219.926590 148.838394 -86.610107 -21.804920 -53.531483 332.896027
[L_Toe3_01]
78 188.832520 -219.859131 -191.078659 -116.175903 7.988234 -67.660538 347.140900
79 188.832520 -219.859131 -191.078659 -116.176941 7.974946 -67.667465 347.140900
80 188.832520 -219.859131 -191.078659 -116.177940 7.961659 -67.674362 347.140900
[planeAlignerLeft]
78 0.812531 -811.448792 -0.314951 0.000000 -90.000000 -90.001900 811.449280
79 0.812531 -811.448792 -0.314951 0.000000 -90.000000 -90.001900 811.449280
80 0.812531 -811.448792 -0.314951 0.000000 -90.000000 -90.001900 811.449280
[L_Toe1_02]
78 413.761139 0.000477 0.000000 0.001398 -24.117670 0.001398 413.761139
79 413.761139 0.000477 0.000000 0.001399 -24.070786 0.001399 413.761139
80 413.761139 0.000477 0.000000 0.001399 -24.023897 0.001399 413.761139
[L_Toe1_03]
78 464.317322 0.000358 -0.000089 0.007666 72.387695 0.007666 464.317322
79 464.317322 0.000358 -0.000089 0.007799 72.690750 0.007799 464.317322
80 464.317322 0.000358 -0.000089 0.007937 72.993713 0.007937 464.317322
[L_Toe2_02]
78 342.235809 -0.000477 0.000238 -0.002384 -64.074860 -0.002384 342.235809
79 342.235809 -0.000477 0.000238 -0.002385 -63.907883 -0.002385 342.235809
80 342.235809 -0.000477 0.000238 -0.002385 -63.740944 -0.002385 342.235809
[L_Toe2_03]
78 420.210846 -0.000715 0.000000 -0.001211 67.856239 -0.004774 420.210846
79 420.210846 -0.000715 0.000000 -0.001185 67.659271 -0.004749 420.210846
80 420.210846 -0.000715 0.000000 -0.001141 67.326302 -0.004707 420.210846
[L_Toe3_02]
78 329.270111 0.000954 0.000000 0.001184 -75.022774 0.001184 329.270111
79 329.270111 0.000954 0.000000 0.001184 -74.894943 0.001184 329.270111
80 329.270111 0.000954 0.000000 0.001184 -74.767036 0.001184 329.270111
[L_Toe3_03]
78 439.137451 -0.001907 0.000954 0.024541 84.517738 0.024541 439.137451
79 439.137451 -0.001907 0.000954 0.023730 84.330368 0.023730 439.137451
80 439.137451 -0.001907 0.000954 0.022451 84.007072 0.022451 439.137451
[planeLockWeightLeft]
78 -0.000954 0.000238 -0.000305 -0.011826 -0.004376 0.005620 0.001029
79 -0.000954 0.000238 -0.000305 -0.011826 -0.004376 0.005620 0.001029
80 -0.000954 0.000238 -0.000305 -0.011826 -0.004376 0.005620 0.001029
[R_Leg01]
78 761.455627 -0.001907 -0.000358 95.448013 3.910313 69.930702 761.455688
79 761.455627 -0.001907 -0.000358 95.581451 3.458204 69.910408 761.455688
80 761.455627 -0.001907 -0.000358 95.714989 3.006159 69.889084 761.455688
[R_Leg02]
78 1441.140625 0.000000 -0.000238 0.115964 -0.005958 -96.816536 1441.140625
79 1441.140625 0.000000 -0.000238 0.108740 -0.001895 -97.121559 1441.140625
80 1441.140625 0.000000 -0.000238 0.101494 0.002129 -97.426605 1441.140625
[R_Leg03]
78 1686.963989 0.000954 0.001431 -0.104258 0.010118 81.862984 1686.963989
79 1686.963989 0.000954 0.001431 -0.107108 0.009135 81.023598 1686.963989
80 1686.963989 0.000954 0.001431 -0.108416 0.009635 80.420509 1686.963989
[R_Foot]
78 3041.560059 -30.531288 -11.204481 48.112209 -67.314377 57.106358 3041.734131
79 3041.560059 -30.531288 -11.204481 47.828777 -67.263290 58.214809 3041.734131
80 3041.560059 -30.531288 -11.204481 47.548584 -67.210098 59.320141 3041.734131
[planeAlignerRight]
78 -0.635147 -812.270569 -0.364304 0.000000 -89.960434 -90.005180 812.270874
79 -0.635147 -812.270569 -0.364304 0.000000 -89.960434 -90.005180 812.270874
80 -0.635147 -812.270569 -0.364304 0.000000 -89.960434 -90.005180 812.270874
[R_Toe1_01]
78 -188.383347 -224.864899 21.052242 90.519272 3.094314 -159.866516 294.101532
79 -188.383347 -224.864899 21.052242 90.471375 3.356205 -159.935410 294.101532
80 -188.383347 -224.864899 21.052242 90.423149 3.618032 -160.004532 294.101532
[R_Toe2_01]
78 200.637817 -220.002121 -148.787384 -103.532410 12.264907 -50.407722 332.857574
79 200.637817 -220.002121 -148.787384 -103.606728 12.467738 -50.479713 332.857574
80 200.637817 -220.002121 -148.787384 -103.681366 12.670477 -50.552032 332.857574
[R_Toe3_01]
78 188.606735 -220.092957 191.126343 -73.224213 -12.744527 -51.611641 347.192566
79 188.606735 -220.092957 191.126343 -73.329597 -12.444427 -51.526947 347.192566
80 188.606735 -220.092957 191.126343 -73.434387 -12.144178 -51.442924 347.192566
[planeLockWeightRight]
78 -0.000477 0.000000 0.000000 -0.011823 -0.004379 -0.000027 0.000477
79 -0.000477 0.000000 0.000000 -0.011823 -0.004379 -0.000027 0.000477
80 -0.000477 0.000000 0.000000 -0.011823 -0.004379 -0.000027 0.000477
[R_Toe1_02]
78 413.762085 0.000477 -0.000119 0.001406 -23.151371 0.001406 413.762085
79 413.762085 0.000477 -0.000119 0.001407 -23.103001 0.001407 413.762085
80 413.762085 0.000477 -0.000119 0.001407 -23.054626 0.001407 413.762085
[R_Toe1_03]
78 464.317810 0.000000 0.001088 0.011255 78.028358 0.011255 464.317810
79 464.317810 0.000000 0.001088 0.011550 78.335999 0.011550 464.317810
80 464.317810 0.000000 0.001088 0.011862 78.643654 0.011862 464.317810
[R_Toe2_02]
78 342.234741 -0.000954 0.000238 -0.007208 -74.677109 0.004032 342.234741
79 342.234741 -0.000954 0.000238 -0.008745 -74.499496 0.006072 342.234741
80 342.234741 -0.000954 0.000238 -0.010241 -74.321854 0.008072 342.234741
[R_Toe2_03]
78 420.210846 0.000715 -0.000268 -179.966034 87.955597 -179.969528 420.210846
79 420.210846 0.000715 -0.000268 -179.952454 88.561562 -179.955948 420.210846
80 420.210846 0.000715 -0.000268 -179.919098 89.167252 -179.922592 420.210846
[R_Toe3_02]
78 329.270355 -0.000477 -0.000954 0.001179 -79.326569 0.001179 329.270355
79 329.270355 -0.000477 -0.000954 0.001179 -79.312050 0.001179 329.270355
80 329.270355 -0.000477 -0.000954 0.001179 -79.297569 0.001179 329.270355
[R_Toe3_03]
78 439.137939 0.000238 0.001431 -179.992203 83.095383 -179.988708 439.137939
79 439.137939 0.000238 0.001431 -179.992142 83.143906 -179.988647 439.137939
80 439.137939 0.000238 0.001431 -179.992065 83.192337 -179.988571 439.137939
[Rear_Leg02]
78 1162.777710 -0.029802 0.005960 -3.162640 9.336958 -75.713753 1162.777710
79 1162.777710 -0.029802 0.005960 -3.826689 9.334757 -76.457306 1162.777710
80 1162.777710 -0.029802 0.005960 -4.720335 9.290106 -77.366707 1162.777710
[Rear_Leg03]
78 607.192505 -0.013351 -0.073195 0.006510 -0.001998 62.337360 607.192505
79 607.192505 -0.013351 -0.073195 0.006509 -0.002001 62.390789 607.192505
80 607.192505 -0.013351 -0.073195 0.006509 -0.002004 62.444214 607.192505
[Rear_Leg04]
78 995.874512 -0.020504 -0.011921 -0.039983 -0.016519 54.376740 995.874573
79 995.874512 -0.020504 -0.011921 -0.040001 -0.016475 54.503475 995.874573
80 995.874512 -0.020504 -0.011921 -0.040019 -0.016430 54.630203 995.874573
[Rear_Foot]
78 3096.176270 -0.067472 -0.041425 146.504776 74.678802 -29.283819 3096.176270
79 3096.176270 -0.067472 -0.041425 147.507614 74.304054 -27.863886 3096.176270
80 3096.176270 -0.067472 -0.041425 148.453644 73.922920 -26.500401 3096.176270
[planeAlignerCenter]
78 0.350077 0.966311 -838.790894 0.000009 0.000003 -179.999985 838.791565
79 0.350077 0.966311 -838.790894 0.000009 0.000003 -179.999985 838.791565
80 0.350077 0.966311 -838.790894 0.000009 0.000003 -179.999985 838.791565
[Rear_Toe1_01]
78 0.653352 83.966492 -371.173737 0.951156 15.582163 92.718819 380.553192
79 0.653352 83.966492 -371.173737 0.898655 16.505280 92.507240 380.553192
80 0.653352 83.966492 -371.173737 0.842325 17.428137 92.293762 380.553192
[Rear_Toe2_01]
78 178.200760 -294.826019 -362.060547 -1.305406 42.219063 -74.916519 499.765686
79 178.200760 -294.826019 -362.060547 -1.172252 43.018021 -74.521774 499.765686
80 178.200760 -294.826019 -362.060547 -1.029693 43.816284 -74.119156 499.765686
[Rear_Toe3_01]
78 -153.359680 -308.780914 -362.060852 -1.735422 42.489433 -114.481262 499.952881
79 -153.359680 -308.780914 -362.060852 -1.760310 43.188969 -114.412956 499.952881
80 -153.359680 -308.780914 -362.060852 -1.784333 43.888496 -114.344284 499.952881
[planeLockWeightCenter]
78 -0.000062 0.000238 0.000000 -0.011814 -0.004373 -0.000015 0.000246
79 -0.000062 0.000238 0.000000 -0.011814 -0.004373 -0.000015 0.000246
80 -0.000062 0.000238 0.000000 -0.011814 -0.004373 -0.000015 0.000246
[Rear_Toe1_02]
78 379.707825 0.194073 0.000477 -0.001051 -33.130363 -0.001051 379.707855
79 379.707825 0.194073 0.000477 -0.000653 -33.211906 -0.000653 379.707855
80 379.707825 0.194073 0.000477 -0.000256 -33.293442 -0.000256 379.707855
[Rear_Toe1_03]
78 500.129700 0.165701 0.000119 -0.014088 85.840599 -0.017587 500.129761
79 500.129700 0.165701 0.000119 0.006850 84.253487 0.005099 500.129761
80 500.129700 0.165701 0.000119 0.018351 82.666420 0.018351 500.129761
[Rear_Toe2_02]
78 340.494507 0.000238 -0.000954 0.001175 -85.108833 0.001175 340.494507
79 340.494507 0.000238 -0.000954 0.001175 -85.059494 0.001175 340.494507
80 340.494507 0.000238 -0.000954 0.001175 -85.010094 0.001175 340.494507
[Rear_Toe2_03]
78 433.103577 0.000000 0.000238 179.985107 80.961624 179.985107 433.103546
79 433.103577 0.000000 0.000238 179.984909 81.077271 179.984909 433.103546
80 433.103577 0.000000 0.000238 179.984726 81.193108 179.984726 433.103546
[Rear_Toe3_02]
78 340.494141 -0.000358 -0.000477 0.001176 -82.797096 0.001176 340.494171
79 340.494141 -0.000358 -0.000477 0.001176 -82.917252 0.001176 340.494171
80 340.494141 -0.000358 -0.000477 0.001176 -83.037399 0.001176 340.494171
[Rear_Toe3_03]
78 433.103577 0.001431 -0.000238 -179.983582 86.373665 -179.980087 433.103546
79 433.103577 0.001431 -0.000238 -179.984879 86.097702 -179.981369 433.103546
80 433.103577 0.001431 -0.000238 -179.985977 85.821625 -179.982483 433.103546
[Back_Bone]
78 1312.175781 -701.934692 0.000954 -2.885089 0.610813 -84.369812 1488.125488
79 1312.175781 -701.934692 0.000954 -2.886262 0.474427 -84.391029 1488.125488
80 1312.175781 -701.934692 0.000954 -2.887384 0.338040 -84.412270 1488.125488
[Head]
78 1406.159424 809.709290 0.001431 -2.695740 1.300497 17.018778 1622.625488
79 1406.159424 809.709290 0.001431 -2.687764 1.313737 17.393667 1622.625488
80 1406.159424 809.709290 0.001431 -2.679700 1.326924 17.768539 1622.625488
[Motor_Bone]
78 1158.364380 -417.834747 0.000477 -2.681256 0.270433 -104.077934 1231.419434
79 1158.364380 -417.834747 0.000477 -2.679726 0.293494 -103.782341 1231.419434
80 1158.364380 -417.834747 0.000477 -2.678077 0.316546 -103.486740 1231.419434
[Ping_Mechanism]
78 1194.952759 -425.948059 19.196188 0.000103 -0.000053 82.120995 1268.744385
79 1193.267090 -425.492310 18.942535 0.000103 -0.000053 82.120995 1267.000000
80 1191.581421 -425.036621 18.688885 0.000103 -0.000053 82.120995 1265.255615
[BN_LookIK]
78 193.241119 1380.371704 -0.002861 0.000000 89.965736 -31.038179 1393.832153
79 193.241119 1380.371704 -0.002861 0.000000 89.965736 -31.038179 1393.832153
80 193.241119 1380.371704 -0.002861 0.000000 89.965736 -31.038179 1393.832153
[bottomMouth]
78 -435.092926 615.759399 -0.000954 -0.000022 0.000016 73.527184 753.966492
79 -435.092926 615.759399 -0.000954 -0.000022 0.000016 73.527184 753.966492
80 -435.092926 615.759399 -0.000954 -0.000022 0.000016 73.527184 753.966492
[L_Mouth01]
78 554.440979 7.658243 838.222046 150.204178 23.759130 109.605339 1005.027161
79 554.440979 7.658243 838.222046 150.204178 23.759130 109.605339 1005.027161
80 554.440979 7.658243 838.222046 150.204178 23.759130 109.605339 1005.027161
[L_mouthFront]
78 551.629089 934.514771 339.150421 0.000081 2.804060 79.119301 1136.941284
79 551.629089 934.514771 339.150421 0.000081 2.804060 79.119301 1136.941284
80 551.629089 934.514771 339.150421 0.000081 2.804060 79.119301 1136.941284
[mouthGun]
78 55.332661 1627.420898 0.000000 0.000023 0.000009 -11.038128 1628.361328
79 55.332661 1627.420898 0.000000 0.000023 0.000009 -11.038128 1628.361328
80 55.332661 1627.420898 0.000000 0.000023 0.000009 -11.038128 1628.361328
[R_Mouth01]
78 554.442383 7.659197 -838.223938 29.795891 -23.759109 109.605331 1005.029541
79 554.442383 7.659197 -838.223938 29.795891 -23.759109 109.605331 1005.029541
80 554.442383 7.659197 -838.223938 29.795891 -23.759109 109.605331 1005.029541
[R_mouthFront]
78 551.629089 934.514282 -339.151367 0.000029 -2.803930 79.119133 1136.941162
79 551.629089 934.514282 -339.151367 0.000029 -2.803930 79.119133 1136.941162
80 551.629089 934.514282 -339.151367 0.000029 -2.803930 79.119133 1136.941162
[TopMouth]
78 461.269867 -56.106091 -0.008583 -0.000059 -0.000268 92.025169 464.669525
79 461.269867 -56.106091 -0.008583 -0.000059 -0.000268 92.025169 464.669525
80 461.269867 -56.106091 -0.008583 -0.000059 -0.000268 92.025169 464.669525
[weapon_bone]
78 -987.239868 1448.372803 0.001431 0.000000 89.965736 -31.038221 1752.833740
79 -987.239868 1448.372803 0.001431 0.000000 89.965736 -31.038221 1752.833740
80 -987.239868 1448.372803 0.001431 0.000000 89.965736 -31.038221 1752.833740
